<?xml version="1.0" encoding="UTF-8" standalone="no"?>
<!DOCTYPE svg PUBLIC "-//W3C//DTD SVG 1.1//EN"
 "http://www.w3.org/Graphics/SVG/1.1/DTD/svg11.dtd">
<!-- Generated by graphviz version 12.2.0 (0)
 -->
<!-- Title: G Pages: 1 -->
<svg width="685pt" height="404pt"
 viewBox="0.00 0.00 684.64 404.00" xmlns="http://www.w3.org/2000/svg" xmlns:xlink="http://www.w3.org/1999/xlink">
<g id="graph0" class="graph" transform="scale(1 1) rotate(0) translate(4 400)">
<title>G</title>
<polygon fill="white" stroke="none" points="-4,4 -4,-400 680.64,-400 680.64,4 -4,4"/>
<!-- wi84ms5hw85w3frljv2spmdl8768dw97&#45;rustc&#45;1.82.0 -->
<g id="node1" class="node">
<title>wi84ms5hw85w3frljv2spmdl8768dw97&#45;rustc&#45;1.82.0</title>
<polygon fill="#ff0000" stroke="black" points="550.75,-36 459,-36 459,0 550.75,0 550.75,-36"/>
<text text-anchor="middle" x="504.88" y="-14.45" font-family="Times,serif" font-size="14.00">rustc&#45;1.82.0</text>
</g>
<!-- i7laizikxvx5hi86g98k4v3p7g8s2a7s&#45;llvm&#45;18.1.8&#45;lib -->
<g id="node2" class="node">
<title>i7laizikxvx5hi86g98k4v3p7g8s2a7s&#45;llvm&#45;18.1.8&#45;lib</title>
<polygon fill="#ff0000" stroke="black" points="432.12,-108 321.62,-108 321.62,-72 432.12,-72 432.12,-108"/>
<text text-anchor="middle" x="376.88" y="-86.45" font-family="Times,serif" font-size="14.00">llvm&#45;18.1.8&#45;lib</text>
</g>
<!-- i7laizikxvx5hi86g98k4v3p7g8s2a7s&#45;llvm&#45;18.1.8&#45;lib&#45;&gt;wi84ms5hw85w3frljv2spmdl8768dw97&#45;rustc&#45;1.82.0 -->
<g id="edge1" class="edge">
<title>i7laizikxvx5hi86g98k4v3p7g8s2a7s&#45;llvm&#45;18.1.8&#45;lib&#45;&gt;wi84ms5hw85w3frljv2spmdl8768dw97&#45;rustc&#45;1.82.0</title>
<path fill="none" stroke="black" d="M408.84,-71.52C425.31,-62.51 445.59,-51.42 463.26,-41.76"/>
<polygon fill="black" stroke="black" points="464.89,-44.86 471.98,-36.99 461.53,-38.71 464.89,-44.86"/>
</g>
<!-- p6k7xp1lsfmbdd731mlglrdj2d66mr82&#45;bash&#45;5.2p37 -->
<g id="node3" class="node">
<title>p6k7xp1lsfmbdd731mlglrdj2d66mr82&#45;bash&#45;5.2p37</title>
<polygon fill="#ff0000" stroke="black" points="616.88,-108 522.88,-108 522.88,-72 616.88,-72 616.88,-108"/>
<text text-anchor="middle" x="569.88" y="-86.45" font-family="Times,serif" font-size="14.00">bash&#45;5.2p37</text>
</g>
<!-- p6k7xp1lsfmbdd731mlglrdj2d66mr82&#45;bash&#45;5.2p37&#45;&gt;wi84ms5hw85w3frljv2spmdl8768dw97&#45;rustc&#45;1.82.0 -->
<g id="edge2" class="edge">
<title>p6k7xp1lsfmbdd731mlglrdj2d66mr82&#45;bash&#45;5.2p37&#45;&gt;wi84ms5hw85w3frljv2spmdl8768dw97&#45;rustc&#45;1.82.0</title>
<path fill="none" stroke="red" d="M553.81,-71.7C546.17,-63.47 536.9,-53.48 528.48,-44.42"/>
<polygon fill="red" stroke="red" points="531.16,-42.16 521.79,-37.21 526.03,-46.92 531.16,-42.16"/>
</g>
<!-- wn7v2vhyyyi6clcyn0s9ixvl7d4d87ic&#45;glibc&#45;2.40&#45;36 -->
<g id="node4" class="node">
<title>wn7v2vhyyyi6clcyn0s9ixvl7d4d87ic&#45;glibc&#45;2.40&#45;36</title>
<polygon fill="#ff0000" stroke="black" points="473.75,-252 376,-252 376,-216 473.75,-216 473.75,-252"/>
<text text-anchor="middle" x="424.88" y="-230.45" font-family="Times,serif" font-size="14.00">glibc&#45;2.40&#45;36</text>
</g>
<!-- wn7v2vhyyyi6clcyn0s9ixvl7d4d87ic&#45;glibc&#45;2.40&#45;36&#45;&gt;wi84ms5hw85w3frljv2spmdl8768dw97&#45;rustc&#45;1.82.0 -->
<g id="edge3" class="edge">
<title>wn7v2vhyyyi6clcyn0s9ixvl7d4d87ic&#45;glibc&#45;2.40&#45;36&#45;&gt;wi84ms5hw85w3frljv2spmdl8768dw97&#45;rustc&#45;1.82.0</title>
<path fill="none" stroke="green" d="M474.18,-229.43C538.28,-223.65 644.9,-209.74 668.88,-180 698.55,-143.19 629.46,-75.16 625.88,-72 607.63,-55.91 583.73,-44.05 561.99,-35.69"/>
<polygon fill="green" stroke="green" points="563.21,-32.41 552.62,-32.26 560.81,-38.98 563.21,-32.41"/>
</g>
<!-- wn7v2vhyyyi6clcyn0s9ixvl7d4d87ic&#45;glibc&#45;2.40&#45;36&#45;&gt;i7laizikxvx5hi86g98k4v3p7g8s2a7s&#45;llvm&#45;18.1.8&#45;lib -->
<g id="edge9" class="edge">
<title>wn7v2vhyyyi6clcyn0s9ixvl7d4d87ic&#45;glibc&#45;2.40&#45;36&#45;&gt;i7laizikxvx5hi86g98k4v3p7g8s2a7s&#45;llvm&#45;18.1.8&#45;lib</title>
<path fill="none" stroke="green" d="M375.68,-230.47C306.24,-225.76 184.9,-212.92 157.88,-180 112.48,-124.71 230.43,-103.45 310.33,-95.51"/>
<polygon fill="green" stroke="green" points="310.19,-99.04 319.82,-94.62 309.54,-92.07 310.19,-99.04"/>
</g>
<!-- wn7v2vhyyyi6clcyn0s9ixvl7d4d87ic&#45;glibc&#45;2.40&#45;36&#45;&gt;p6k7xp1lsfmbdd731mlglrdj2d66mr82&#45;bash&#45;5.2p37 -->
<g id="edge14" class="edge">
<title>wn7v2vhyyyi6clcyn0s9ixvl7d4d87ic&#45;glibc&#45;2.40&#45;36&#45;&gt;p6k7xp1lsfmbdd731mlglrdj2d66mr82&#45;bash&#45;5.2p37</title>
<path fill="none" stroke="red" d="M474.13,-228.55C534.1,-221.99 630.12,-207.42 651.88,-180 661.82,-167.47 659.52,-158.05 651.88,-144 645.29,-131.9 634.63,-122.15 623.13,-114.46"/>
<polygon fill="red" stroke="red" points="625.01,-111.51 614.65,-109.28 621.36,-117.48 625.01,-111.51"/>
</g>
<!-- ybjcla5bhj8g1y84998pn4a2drfxybkv&#45;gcc&#45;13.3.0&#45;lib -->
<g id="node5" class="node">
<title>ybjcla5bhj8g1y84998pn4a2drfxybkv&#45;gcc&#45;13.3.0&#45;lib</title>
<polygon fill="#ff0000" stroke="black" points="111.25,-180 10.5,-180 10.5,-144 111.25,-144 111.25,-180"/>
<text text-anchor="middle" x="60.88" y="-158.45" font-family="Times,serif" font-size="14.00">gcc&#45;13.3.0&#45;lib</text>
</g>
<!-- wn7v2vhyyyi6clcyn0s9ixvl7d4d87ic&#45;glibc&#45;2.40&#45;36&#45;&gt;ybjcla5bhj8g1y84998pn4a2drfxybkv&#45;gcc&#45;13.3.0&#45;lib -->
<g id="edge20" class="edge">
<title>wn7v2vhyyyi6clcyn0s9ixvl7d4d87ic&#45;glibc&#45;2.40&#45;36&#45;&gt;ybjcla5bhj8g1y84998pn4a2drfxybkv&#45;gcc&#45;13.3.0&#45;lib</title>
<path fill="none" stroke="red" d="M375.52,-225.6C315.85,-216.34 212.55,-199.35 124.88,-180 124.05,-179.82 123.23,-179.63 122.4,-179.45"/>
<polygon fill="red" stroke="red" points="123.44,-176.1 112.91,-177.2 121.83,-182.91 123.44,-176.1"/>
</g>
<!-- 1p1j0iv3c909kcs4d5300kcsnlwmbwyj&#45;ncurses&#45;6.4.20221231 -->
<g id="node6" class="node">
<title>1p1j0iv3c909kcs4d5300kcsnlwmbwyj&#45;ncurses&#45;6.4.20221231</title>
<polygon fill="#ff0000" stroke="black" points="320.88,-180 166.88,-180 166.88,-144 320.88,-144 320.88,-180"/>
<text text-anchor="middle" x="243.88" y="-158.45" font-family="Times,serif" font-size="14.00">ncurses&#45;6.4.20221231</text>
</g>
<!-- wn7v2vhyyyi6clcyn0s9ixvl7d4d87ic&#45;glibc&#45;2.40&#45;36&#45;&gt;1p1j0iv3c909kcs4d5300kcsnlwmbwyj&#45;ncurses&#45;6.4.20221231 -->
<g id="edge11" class="edge">
<title>wn7v2vhyyyi6clcyn0s9ixvl7d4d87ic&#45;glibc&#45;2.40&#45;36&#45;&gt;1p1j0iv3c909kcs4d5300kcsnlwmbwyj&#45;ncurses&#45;6.4.20221231</title>
<path fill="none" stroke="magenta" d="M379.67,-215.52C355.39,-206.13 325.25,-194.47 299.54,-184.53"/>
<polygon fill="magenta" stroke="magenta" points="300.82,-181.27 290.23,-180.93 298.3,-187.8 300.82,-181.27"/>
</g>
<!-- bzk3q2l71qwhycsip23y6rl5n881la4n&#45;zlib&#45;1.3.1 -->
<g id="node7" class="node">
<title>bzk3q2l71qwhycsip23y6rl5n881la4n&#45;zlib&#45;1.3.1</title>
<polygon fill="#ff0000" stroke="black" points="414.5,-180 339.25,-180 339.25,-144 414.5,-144 414.5,-180"/>
<text text-anchor="middle" x="376.88" y="-158.45" font-family="Times,serif" font-size="14.00">zlib&#45;1.3.1</text>
</g>
<!-- wn7v2vhyyyi6clcyn0s9ixvl7d4d87ic&#45;glibc&#45;2.40&#45;36&#45;&gt;bzk3q2l71qwhycsip23y6rl5n881la4n&#45;zlib&#45;1.3.1 -->
<g id="edge12" class="edge">
<title>wn7v2vhyyyi6clcyn0s9ixvl7d4d87ic&#45;glibc&#45;2.40&#45;36&#45;&gt;bzk3q2l71qwhycsip23y6rl5n881la4n&#45;zlib&#45;1.3.1</title>
<path fill="none" stroke="burlywood" d="M413.01,-215.7C407.6,-207.81 401.08,-198.3 395.08,-189.55"/>
<polygon fill="burlywood" stroke="burlywood" points="398,-187.62 389.46,-181.35 392.23,-191.58 398,-187.62"/>
</g>
<!-- lw7psn749bfn2nrn943jdh68hh2im8yl&#45;libffi&#45;3.4.6 -->
<g id="node8" class="node">
<title>lw7psn749bfn2nrn943jdh68hh2im8yl&#45;libffi&#45;3.4.6</title>
<polygon fill="#ff0000" stroke="black" points="514.88,-180 432.88,-180 432.88,-144 514.88,-144 514.88,-180"/>
<text text-anchor="middle" x="473.88" y="-158.45" font-family="Times,serif" font-size="14.00">libffi&#45;3.4.6</text>
</g>
<!-- wn7v2vhyyyi6clcyn0s9ixvl7d4d87ic&#45;glibc&#45;2.40&#45;36&#45;&gt;lw7psn749bfn2nrn943jdh68hh2im8yl&#45;libffi&#45;3.4.6 -->
<g id="edge13" class="edge">
<title>wn7v2vhyyyi6clcyn0s9ixvl7d4d87ic&#45;glibc&#45;2.40&#45;36&#45;&gt;lw7psn749bfn2nrn943jdh68hh2im8yl&#45;libffi&#45;3.4.6</title>
<path fill="none" stroke="black" d="M436.99,-215.7C442.57,-207.73 449.31,-198.1 455.49,-189.26"/>
<polygon fill="black" stroke="black" points="458.17,-191.54 461.03,-181.34 452.43,-187.53 458.17,-191.54"/>
</g>
<!-- shg1vgcjxghqxhl0sifwgr0g2zg6bbv7&#45;libxml2&#45;2.13.4 -->
<g id="node9" class="node">
<title>shg1vgcjxghqxhl0sifwgr0g2zg6bbv7&#45;libxml2&#45;2.13.4</title>
<polygon fill="#ff0000" stroke="black" points="642.38,-180 533.38,-180 533.38,-144 642.38,-144 642.38,-180"/>
<text text-anchor="middle" x="587.88" y="-158.45" font-family="Times,serif" font-size="14.00">libxml2&#45;2.13.4</text>
</g>
<!-- wn7v2vhyyyi6clcyn0s9ixvl7d4d87ic&#45;glibc&#45;2.40&#45;36&#45;&gt;shg1vgcjxghqxhl0sifwgr0g2zg6bbv7&#45;libxml2&#45;2.13.4 -->
<g id="edge15" class="edge">
<title>wn7v2vhyyyi6clcyn0s9ixvl7d4d87ic&#45;glibc&#45;2.40&#45;36&#45;&gt;shg1vgcjxghqxhl0sifwgr0g2zg6bbv7&#45;libxml2&#45;2.13.4</title>
<path fill="none" stroke="green" d="M465.59,-215.52C487.26,-206.21 514.11,-194.68 537.13,-184.79"/>
<polygon fill="green" stroke="green" points="538.2,-188.14 546.01,-180.98 535.44,-181.71 538.2,-188.14"/>
</g>
<!-- ybjcla5bhj8g1y84998pn4a2drfxybkv&#45;gcc&#45;13.3.0&#45;lib&#45;&gt;wi84ms5hw85w3frljv2spmdl8768dw97&#45;rustc&#45;1.82.0 -->
<g id="edge4" class="edge">
<title>ybjcla5bhj8g1y84998pn4a2drfxybkv&#45;gcc&#45;13.3.0&#45;lib&#45;&gt;wi84ms5hw85w3frljv2spmdl8768dw97&#45;rustc&#45;1.82.0</title>
<path fill="none" stroke="blue" d="M106.99,-143.62C157.28,-124.92 240.28,-94.81 312.88,-72 357.91,-57.85 409.52,-43.72 447.88,-33.61"/>
<polygon fill="blue" stroke="blue" points="448.58,-37.04 457.37,-31.12 446.81,-30.27 448.58,-37.04"/>
</g>
<!-- ybjcla5bhj8g1y84998pn4a2drfxybkv&#45;gcc&#45;13.3.0&#45;lib&#45;&gt;i7laizikxvx5hi86g98k4v3p7g8s2a7s&#45;llvm&#45;18.1.8&#45;lib -->
<g id="edge10" class="edge">
<title>ybjcla5bhj8g1y84998pn4a2drfxybkv&#45;gcc&#45;13.3.0&#45;lib&#45;&gt;i7laizikxvx5hi86g98k4v3p7g8s2a7s&#45;llvm&#45;18.1.8&#45;lib</title>
<path fill="none" stroke="blue" d="M111.47,-147.3C115.99,-146.15 120.51,-145.04 124.88,-144 187.35,-129.14 259.05,-114.27 309.96,-104.08"/>
<polygon fill="blue" stroke="blue" points="310.53,-107.54 319.65,-102.15 309.16,-100.67 310.53,-107.54"/>
</g>
<!-- 1p1j0iv3c909kcs4d5300kcsnlwmbwyj&#45;ncurses&#45;6.4.20221231&#45;&gt;i7laizikxvx5hi86g98k4v3p7g8s2a7s&#45;llvm&#45;18.1.8&#45;lib -->
<g id="edge5" class="edge">
<title>1p1j0iv3c909kcs4d5300kcsnlwmbwyj&#45;ncurses&#45;6.4.20221231&#45;&gt;i7laizikxvx5hi86g98k4v3p7g8s2a7s&#45;llvm&#45;18.1.8&#45;lib</title>
<path fill="none" stroke="magenta" d="M277.09,-143.52C294.36,-134.43 315.66,-123.22 334.15,-113.49"/>
<polygon fill="magenta" stroke="magenta" points="335.52,-116.72 342.74,-108.97 332.26,-110.53 335.52,-116.72"/>
</g>
<!-- bzk3q2l71qwhycsip23y6rl5n881la4n&#45;zlib&#45;1.3.1&#45;&gt;i7laizikxvx5hi86g98k4v3p7g8s2a7s&#45;llvm&#45;18.1.8&#45;lib -->
<g id="edge6" class="edge">
<title>bzk3q2l71qwhycsip23y6rl5n881la4n&#45;zlib&#45;1.3.1&#45;&gt;i7laizikxvx5hi86g98k4v3p7g8s2a7s&#45;llvm&#45;18.1.8&#45;lib</title>
<path fill="none" stroke="burlywood" d="M376.88,-143.7C376.88,-136.41 376.88,-127.73 376.88,-119.54"/>
<polygon fill="burlywood" stroke="burlywood" points="380.38,-119.62 376.88,-109.62 373.38,-119.62 380.38,-119.62"/>
</g>
<!-- lw7psn749bfn2nrn943jdh68hh2im8yl&#45;libffi&#45;3.4.6&#45;&gt;i7laizikxvx5hi86g98k4v3p7g8s2a7s&#45;llvm&#45;18.1.8&#45;lib -->
<g id="edge7" class="edge">
<title>lw7psn749bfn2nrn943jdh68hh2im8yl&#45;libffi&#45;3.4.6&#45;&gt;i7laizikxvx5hi86g98k4v3p7g8s2a7s&#45;llvm&#45;18.1.8&#45;lib</title>
<path fill="none" stroke="black" d="M449.9,-143.7C437.89,-135.03 423.16,-124.4 410.08,-114.96"/>
<polygon fill="black" stroke="black" points="412.3,-112.25 402.14,-109.23 408.2,-117.92 412.3,-112.25"/>
</g>
<!-- shg1vgcjxghqxhl0sifwgr0g2zg6bbv7&#45;libxml2&#45;2.13.4&#45;&gt;i7laizikxvx5hi86g98k4v3p7g8s2a7s&#45;llvm&#45;18.1.8&#45;lib -->
<g id="edge8" class="edge">
<title>shg1vgcjxghqxhl0sifwgr0g2zg6bbv7&#45;libxml2&#45;2.13.4&#45;&gt;i7laizikxvx5hi86g98k4v3p7g8s2a7s&#45;llvm&#45;18.1.8&#45;lib</title>
<path fill="none" stroke="red" d="M535.18,-143.52C506.37,-133.96 470.48,-122.05 440.16,-112"/>
<polygon fill="red" stroke="red" points="441.3,-108.69 430.7,-108.86 439.09,-115.33 441.3,-108.69"/>
</g>
<!-- 2d5spnl8j5r4n1s4bj1zmra7mwx0f1n8&#45;xgcc&#45;13.3.0&#45;libgcc -->
<g id="node10" class="node">
<title>2d5spnl8j5r4n1s4bj1zmra7mwx0f1n8&#45;xgcc&#45;13.3.0&#45;libgcc</title>
<polygon fill="#ff0000" stroke="black" points="423.88,-324 293.88,-324 293.88,-288 423.88,-288 423.88,-324"/>
<text text-anchor="middle" x="358.88" y="-302.45" font-family="Times,serif" font-size="14.00">xgcc&#45;13.3.0&#45;libgcc</text>
</g>
<!-- 2d5spnl8j5r4n1s4bj1zmra7mwx0f1n8&#45;xgcc&#45;13.3.0&#45;libgcc&#45;&gt;wn7v2vhyyyi6clcyn0s9ixvl7d4d87ic&#45;glibc&#45;2.40&#45;36 -->
<g id="edge16" class="edge">
<title>2d5spnl8j5r4n1s4bj1zmra7mwx0f1n8&#45;xgcc&#45;13.3.0&#45;libgcc&#45;&gt;wn7v2vhyyyi6clcyn0s9ixvl7d4d87ic&#45;glibc&#45;2.40&#45;36</title>
<path fill="none" stroke="blue" d="M375.19,-287.7C382.94,-279.47 392.36,-269.48 400.91,-260.42"/>
<polygon fill="blue" stroke="blue" points="403.4,-262.88 407.71,-253.21 398.3,-258.08 403.4,-262.88"/>
</g>
<!-- qwjjm4j652ck9izaid7bz63s4hd5bnha&#45;libidn2&#45;2.3.7 -->
<g id="node11" class="node">
<title>qwjjm4j652ck9izaid7bz63s4hd5bnha&#45;libidn2&#45;2.3.7</title>
<polygon fill="#ff0000" stroke="black" points="539.38,-324 442.38,-324 442.38,-288 539.38,-288 539.38,-324"/>
<text text-anchor="middle" x="490.88" y="-302.45" font-family="Times,serif" font-size="14.00">libidn2&#45;2.3.7</text>
</g>
<!-- qwjjm4j652ck9izaid7bz63s4hd5bnha&#45;libidn2&#45;2.3.7&#45;&gt;wn7v2vhyyyi6clcyn0s9ixvl7d4d87ic&#45;glibc&#45;2.40&#45;36 -->
<g id="edge17" class="edge">
<title>qwjjm4j652ck9izaid7bz63s4hd5bnha&#45;libidn2&#45;2.3.7&#45;&gt;wn7v2vhyyyi6clcyn0s9ixvl7d4d87ic&#45;glibc&#45;2.40&#45;36</title>
<path fill="none" stroke="magenta" d="M474.56,-287.7C466.81,-279.47 457.39,-269.48 448.84,-260.42"/>
<polygon fill="magenta" stroke="magenta" points="451.45,-258.08 442.04,-253.21 446.35,-262.88 451.45,-258.08"/>
</g>
<!-- 6pqgj71r0850b0cd95yxx0d52zax016i&#45;libunistring&#45;1.2 -->
<g id="node12" class="node">
<title>6pqgj71r0850b0cd95yxx0d52zax016i&#45;libunistring&#45;1.2</title>
<polygon fill="#ff0000" stroke="black" points="549.88,-396 431.88,-396 431.88,-360 549.88,-360 549.88,-396"/>
<text text-anchor="middle" x="490.88" y="-374.45" font-family="Times,serif" font-size="14.00">libunistring&#45;1.2</text>
</g>
<!-- 6pqgj71r0850b0cd95yxx0d52zax016i&#45;libunistring&#45;1.2&#45;&gt;qwjjm4j652ck9izaid7bz63s4hd5bnha&#45;libidn2&#45;2.3.7 -->
<g id="edge18" class="edge">
<title>6pqgj71r0850b0cd95yxx0d52zax016i&#45;libunistring&#45;1.2&#45;&gt;qwjjm4j652ck9izaid7bz63s4hd5bnha&#45;libidn2&#45;2.3.7</title>
<path fill="none" stroke="burlywood" d="M490.88,-359.7C490.88,-352.41 490.88,-343.73 490.88,-335.54"/>
<polygon fill="burlywood" stroke="burlywood" points="494.38,-335.62 490.88,-325.62 487.38,-335.62 494.38,-335.62"/>
</g>
<!-- j8rzqx7farv0w3isp9z943zy437zk02f&#45;gcc&#45;13.3.0&#45;libgcc -->
<g id="node13" class="node">
<title>j8rzqx7farv0w3isp9z943zy437zk02f&#45;gcc&#45;13.3.0&#45;libgcc</title>
<polygon fill="#ff0000" stroke="black" points="121.75,-252 0,-252 0,-216 121.75,-216 121.75,-252"/>
<text text-anchor="middle" x="60.88" y="-230.45" font-family="Times,serif" font-size="14.00">gcc&#45;13.3.0&#45;libgcc</text>
</g>
<!-- j8rzqx7farv0w3isp9z943zy437zk02f&#45;gcc&#45;13.3.0&#45;libgcc&#45;&gt;ybjcla5bhj8g1y84998pn4a2drfxybkv&#45;gcc&#45;13.3.0&#45;lib -->
<g id="edge19" class="edge">
<title>j8rzqx7farv0w3isp9z943zy437zk02f&#45;gcc&#45;13.3.0&#45;libgcc&#45;&gt;ybjcla5bhj8g1y84998pn4a2drfxybkv&#45;gcc&#45;13.3.0&#45;lib</title>
<path fill="none" stroke="black" d="M60.88,-215.7C60.88,-208.41 60.88,-199.73 60.88,-191.54"/>
<polygon fill="black" stroke="black" points="64.38,-191.62 60.88,-181.62 57.38,-191.62 64.38,-191.62"/>
</g>
</g>
</svg>
